<svg xmlns="http://www.w3.org/2000/svg" width="864" height="1260" viewBox="-144 -252 288 420">
  <!-- Original film prop. Each group is also rendered separately during assembly. -->
  <g id="finL" data-box="-126 20 -63 132">
    <path data-outline="" d="M-67 20C-96 38 -123 80 -126 120Q-127 137 -113 130C-96 113 -80 102 -63 96Z" fill="#343638"/>
  </g>
  <g id="finR" data-box="63 20 126 132">
    <path data-outline="" d="M67 20C96 38 123 80 126 120Q127 137 113 130C96 113 80 102 63 96Z" fill="#343638"/>
  </g>
  <g id="nozzle" data-box="-56 92 56 130">
    <path data-outline="" d="M-42 92H42L55 120Q59 130 47 130H-47Q-59 130 -55 120Z" fill="#343638"/>
  </g>
  <g id="hull" data-box="-70 -8 70 92">
    <path data-outline="" d="M-70 -8H70L63 78Q62 92 48 92H-48Q-62 92 -63 78Z" fill="#C7CFC8"/>
    <path d="M-68 24H68L66 43H-66Z" fill="#90a49d"/>
  </g>
  <g id="cabin" data-box="-70 -118 70 -8">
    <path data-outline="" d="M-68 -118H68L70 -8H-70Z" fill="#C7CFC8"/>
    <circle cy="-63" r="37" fill="#343638"/>
    <circle cy="-63" r="28" fill="#F5F5F2"/>
  </g>
  <g id="nose" data-box="-68 -238 68 -118">
    <path data-outline="" d="M-68 -118C-66 -167 -40 -211 -7 -235Q0 -241 7 -235C40 -211 66 -167 68 -118Z" fill="#343638"/>
  </g>
</svg>
